<svg id="eJ8WXxScRav1" xmlns="http://www.w3.org/2000/svg" xmlns:xlink="http://www.w3.org/1999/xlink" viewBox="0 0 640 480" shape-rendering="geometricPrecision" text-rendering="geometricPrecision"><style><![CDATA[#eJ8WXxScRav5_tr {animation: eJ8WXxScRav5_tr__tr 3000ms linear infinite normal forwards}@keyframes eJ8WXxScRav5_tr__tr { 0% {transform: translate(509.557601px,210.172492px) rotate(2.707011deg)} 33.333333% {transform: translate(509.557601px,210.172492px) rotate(2.707011deg)} 50% {transform: translate(509.557601px,210.172492px) rotate(-12.10315deg)} 56.666667% {transform: translate(509.557601px,210.172492px) rotate(-12.10315deg)} 100% {transform: translate(509.557601px,210.172492px) rotate(6.587439deg)}} #eJ8WXxScRav5 {animation: eJ8WXxScRav5_c_o 3000ms linear infinite normal forwards}@keyframes eJ8WXxScRav5_c_o { 0% {opacity: 1} 70% {opacity: 1} 100% {opacity: 0.76}} #eJ8WXxScRav6_tr {animation: eJ8WXxScRav6_tr__tr 3000ms linear infinite normal forwards}@keyframes eJ8WXxScRav6_tr__tr { 0% {transform: translate(487.067333px,212.296644px) rotate(8.600761deg)} 23.333333% {transform: translate(487.067333px,212.296644px) rotate(8.600761deg)} 50% {transform: translate(487.067333px,212.296644px) rotate(-8.494764deg)} 83.333333% {transform: translate(487.067333px,212.296644px) rotate(14.478429deg)} 100% {transform: translate(487.067333px,212.296644px) rotate(14.478429deg)}} #eJ8WXxScRav6 {animation: eJ8WXxScRav6_c_o 3000ms linear infinite normal forwards}@keyframes eJ8WXxScRav6_c_o { 0% {opacity: 1} 56.666667% {opacity: 1} 86.666667% {opacity: 0.49} 100% {opacity: 0.9}} #eJ8WXxScRav7_tr {animation: eJ8WXxScRav7_tr__tr 3000ms linear infinite normal forwards}@keyframes eJ8WXxScRav7_tr__tr { 0% {transform: translate(466.518235px,239.030892px) rotate(0deg)} 3.333333% {transform: translate(466.518235px,239.030892px) rotate(0deg)} 36.666667% {transform: translate(466.518235px,239.030892px) rotate(-3.609039deg)} 66.666667% {transform: translate(466.518235px,239.030892px) rotate(13.759347deg)} 100% {transform: translate(466.518235px,239.030892px) rotate(4.965655deg)}} #eJ8WXxScRav7 {animation: eJ8WXxScRav7_c_o 3000ms linear infinite normal forwards}@keyframes eJ8WXxScRav7_c_o { 0% {opacity: 1} 13.333333% {opacity: 1} 46.666667% {opacity: 0.6} 100% {opacity: 0.93}}]]></style><rect width="350.471" height="40.0782" rx="0" ry="0" transform="matrix(1.009732 0 0 1.127659 95.155739 336.004913)" fill="#b06545" stroke-width="0" stroke-linecap="round"/><ellipse rx="36.2409" ry="31.3377" transform="matrix(1.705878 0 0 1.17235 466.518219 358.602142)" fill="#7c787d" stroke-width="0"/><g transform="translate(0 0.000001)"><g id="eJ8WXxScRav5_tr" transform="translate(509.557601,210.172492) rotate(2.707011)"><path id="eJ8WXxScRav5" d="M479.459909,46.899982c37.946375,51.163616-8.069158,45.292968,27.713657,75.039972s-32.43967,40.833552,25.581807,69.92361C557.160394,204.099438,511.010866,240,495.235387,240s-56.108831-15.229443-40.930893-66.896429c11.235751-38.247448,28.306117-59.042687-13.643632-92.947238-41.147738-33.256351-10.697758-53.721799,3.410906-73.334517c16.642639-23.135244,15.355242,13.067534,35.388141,40.078166Z" transform="scale(-1.020269,1.341059) translate(-480.201324,-120.296783)" fill="#da903b" stroke-width="1.28"/></g><g id="eJ8WXxScRav6_tr" transform="translate(487.067333,212.296644) rotate(8.600761)"><path id="eJ8WXxScRav6" d="M479.459909,46.899982c15.775479,38.931886-3.62944,46.191664,27.713657,75.039972s25.581799,36.135818,25.581807,69.92361C532.755375,197.836755,511.010866,240,495.235387,240s-51.163619-14.027359-40.930893-66.896429c8.023687-41.455706,11.46414-34.85916-13.643632-92.947238-17.465692-40.407746-2.445912-49.895004,3.410906-73.334517c26.72273-106.946773,22.758963,8.910952,35.388141,40.078166Z" transform="scale(1.187675,1.187675) translate(-483.08638,-103.74421)" fill="#ffe56e" stroke-width="1.28"/></g><g id="eJ8WXxScRav7_tr" transform="translate(466.518235,239.030892) rotate(0)"><path id="eJ8WXxScRav7" d="M479.459909,46.899982c37.946375,51.163616-6.395284,54.574525,27.713657,75.039972s-.802027,48.81654,25.581807,69.92361C554.073543,208.918102,511.010866,240,495.235387,240s-51.163619-14.027359-40.930893-66.896429c8.023687-41.455706,20.465443-51.163617-13.643632-92.947238-27.837759-34.101258-10.697758-53.721799,3.410906-73.334517c16.642639-23.135244,15.355242,13.067534,35.388141,40.078166Z" transform="scale(1.187675,1.187675) translate(-482.387329,-120.296783)" fill="#f96259" stroke-width="1.28"/></g></g></svg>